<svg xmlns="http://www.w3.org/2000/svg" xmlns:xlink="http://www.w3.org/1999/xlink" width="110" zoomAndPan="magnify" viewBox="0 0 82.5 30.000001" height="40" preserveAspectRatio="xMidYMid meet" version="1.0"><defs><g/></defs><g fill="rgb(0%, 0%, 0%)" fill-opacity="1"><g transform="translate(0.622606, 24.407499)"><g><path d="M 6.957031 -12.132812 L 18.25 0.46875 L 19.433594 0.46875 L 19.433594 -22.273438 L 14.941406 -22.273438 L 14.941406 -9.671875 L 3.679688 -22.769531 L 2.496094 -22.769531 L 2.496094 0 L 6.957031 0 Z M 6.957031 -12.132812 "/></g></g></g><g fill="rgb(0%, 0%, 0%)" fill-opacity="1"><g transform="translate(22.578884, 24.407499)"><g/></g></g><g fill="rgb(0%, 0%, 0%)" fill-opacity="1"><g transform="translate(31.4379, 24.407499)"><g/></g></g><g fill="rgb(0%, 0%, 0%)" fill-opacity="1"><g transform="translate(40.287805, 24.407499)"><g><path d="M 10.636719 0 L 10.636719 -17.84375 L 16.191406 -17.84375 L 16.191406 -22.273438 L 0.625 -22.273438 L 0.625 -17.84375 L 6.175781 -17.84375 L 6.175781 0 Z M 10.636719 0 "/></g></g></g><path fill="rgb(100%, 44.709778%, 21.179199%)" d="M 21.550781 2.027344 L 39.058594 2.027344 L 39.058594 7.140625 L 21.550781 7.140625 L 21.550781 2.027344 " fill-opacity="1" fill-rule="nonzero"/><path fill="rgb(0%, 50.19989%, 21.569824%)" d="M 21.542969 10.441406 L 36.148438 10.441406 L 36.148438 15.550781 L 21.542969 15.550781 L 21.542969 10.441406 " fill-opacity="1" fill-rule="nonzero"/><path fill="rgb(0%, 29.019165%, 67.83905%)" d="M 55.414062 18.984375 C 54.003906 18.984375 52.859375 20.128906 52.859375 21.542969 C 52.859375 22.953125 54.003906 24.097656 55.414062 24.097656 C 56.828125 24.097656 57.972656 22.953125 57.972656 21.542969 C 57.972656 20.128906 56.828125 18.984375 55.414062 18.984375 " fill-opacity="1" fill-rule="nonzero"/><g fill="rgb(0%, 0%, 0%)" fill-opacity="1"><g transform="translate(69.870905, 28.423655)"><g><path d="M -2.632812 -2.605469 L -4.636719 -0.804688 L -4.636719 -0.511719 L 0 -0.511719 L 0 -1.4375 L -2.546875 -1.4375 L -1.320312 -2.605469 L -2.546875 -3.773438 L 0 -3.769531 L 0 -4.695312 L -4.636719 -4.695312 L -4.636719 -4.40625 Z M -2.632812 -2.605469 "/></g></g></g><g fill="rgb(0%, 0%, 0%)" fill-opacity="1"><g transform="translate(69.870905, 23.212325)"><g><path d="M 0.0625 -2.707031 C 0.0625 -5.851562 -4.644531 -5.851562 -4.644531 -2.707031 C -4.644531 0.433594 0.0625 0.433594 0.0625 -2.707031 Z M -0.882812 -2.707031 C -0.882812 -0.882812 -3.703125 -0.882812 -3.703125 -2.707031 C -3.703125 -4.535156 -0.882812 -4.535156 -0.882812 -2.707031 Z M -0.882812 -2.707031 "/></g></g></g><g fill="rgb(0%, 0%, 0%)" fill-opacity="1"><g transform="translate(69.870905, 17.803012)"><g><path d="M 0 -0.0390625 L 0 -1.148438 L -1.566406 -2.03125 L 0 -2.90625 L 0 -3.984375 L -2.433594 -2.546875 L -4.574219 -3.792969 L -4.574219 -2.714844 L -3.300781 -2.03125 L -4.574219 -1.339844 L -4.574219 -0.234375 L -2.433594 -1.476562 Z M 0 -0.0390625 "/></g></g></g><g fill="rgb(0%, 0%, 0%)" fill-opacity="1"><g transform="translate(78.38609, 28.340499)"><g><path d="M 0 -2.785156 L 0 -3.820312 L -1.882812 -2.757812 C -2.273438 -4.101562 -4.566406 -3.941406 -4.566406 -2.3125 L -4.566406 -0.511719 L 0 -0.511719 L 0 -1.425781 L -1.742188 -1.425781 L -1.742188 -1.863281 Z M -2.632812 -1.425781 L -3.652344 -1.425781 L -3.652344 -2.230469 C -3.652344 -2.847656 -2.632812 -2.847656 -2.632812 -2.230469 Z M -2.632812 -1.425781 "/></g></g></g><g fill="rgb(0%, 0%, 0%)" fill-opacity="1"><g transform="translate(78.38609, 24.425617)"><g><path d="M 0 -0.101562 L 0 -1.136719 L -0.492188 -1.316406 L -0.492188 -2.828125 L 0 -3.015625 L 0 -4.042969 L -4.730469 -2.121094 L -4.730469 -2.023438 Z M -1.347656 -1.648438 L -2.535156 -2.074219 L -1.347656 -2.492188 Z M -1.347656 -1.648438 "/></g></g></g><g fill="rgb(0%, 0%, 0%)" fill-opacity="1"><g transform="translate(78.38609, 20.255273)"><g><path d="M 0 -2.179688 L -3.652344 -2.179688 L -3.652344 -3.316406 L -4.558594 -3.316406 L -4.558594 -0.128906 L -3.652344 -0.128906 L -3.652344 -1.265625 L 0 -1.265625 Z M 0 -2.179688 "/></g></g></g><g fill="rgb(0%, 0%, 0%)" fill-opacity="1"><g transform="translate(78.38609, 16.761896)"><g><path d="M 0 -3.703125 L -4.566406 -3.703125 L -4.566406 -2.789062 L -2.738281 -2.789062 L -2.738281 -1.425781 L -4.566406 -1.425781 L -4.566406 -0.511719 L 0 -0.511719 L 0 -1.425781 L -1.828125 -1.425781 L -1.828125 -2.789062 L 0 -2.789062 Z M 0 -3.703125 "/></g></g></g><g fill="rgb(0%, 0%, 0%)" fill-opacity="1"><g transform="translate(78.38609, 12.540465)"><g><path d="M 0.0625 -2.707031 C 0.0625 -5.851562 -4.644531 -5.851562 -4.644531 -2.707031 C -4.644531 0.433594 0.0625 0.433594 0.0625 -2.707031 Z M -0.882812 -2.707031 C -0.882812 -0.882812 -3.703125 -0.882812 -3.703125 -2.707031 C -3.703125 -4.535156 -0.882812 -4.535156 -0.882812 -2.707031 Z M -0.882812 -2.707031 "/></g></g></g><g fill="rgb(0%, 0%, 0%)" fill-opacity="1"><g transform="translate(78.38609, 7.131152)"><g><path d="M 0 -2.785156 L 0 -3.820312 L -1.882812 -2.757812 C -2.273438 -4.101562 -4.566406 -3.941406 -4.566406 -2.3125 L -4.566406 -0.511719 L 0 -0.511719 L 0 -1.425781 L -1.742188 -1.425781 L -1.742188 -1.863281 Z M -2.632812 -1.425781 L -3.652344 -1.425781 L -3.652344 -2.230469 C -3.652344 -2.847656 -2.632812 -2.847656 -2.632812 -2.230469 Z M -2.632812 -1.425781 "/></g></g></g><g fill="rgb(0%, 0%, 0%)" fill-opacity="1"><g transform="translate(78.38609, 3.21627)"><g><path d="M 0 -2.875 L -0.914062 -2.875 L -0.914062 -1.425781 L -1.828125 -1.425781 L -1.828125 -2.625 L -2.738281 -2.625 L -2.738281 -1.425781 L -3.652344 -1.425781 L -3.652344 -2.796875 L -4.566406 -2.796875 L -4.566406 -0.511719 L 0 -0.511719 Z M 0 -2.875 "/></g></g></g></svg>